<?xml version="1.0" encoding="utf-8"?>
<!-- Generator: Adobe Illustrator 25.4.1, SVG Export Plug-In . SVG Version: 6.00 Build 0)  -->
<svg version="1.1" id="Capa_1" xmlns="http://www.w3.org/2000/svg" xmlns:xlink="http://www.w3.org/1999/xlink" x="0px" y="0px"
	 viewBox="0 0 800 800" style="enable-background:new 0 0 800 800;" xml:space="preserve">
<style type="text/css">
	.st0{fill:#FFFFFF;}
</style>
<path class="st0" d="M571,474.5c-9.5-4.5-55-27-63.5-30.5c-8.5-3.5-14.5-4.5-21,5s-24,30-29.5,36.5c-5.5,6.5-10.5,7-20,0
	c-27.3-11-52.5-26.5-74.5-46c-19.9-18.8-36.8-40.5-50-64.5c-5.5-9,0-14,4-19c4-5,9-10.5,14-16c3.7-4.8,6.7-10,9-15.5
	c2.5-5.2,2.5-11.3,0-16.5c0-4.5-21-50-29-68.5s-15-16-20.5-16h-20c-9.5,0.4-18.5,4.5-25,11.5c-21.1,20.2-32.9,48.3-32.5,77.5
	c2.6,35.5,15.6,69.4,37.5,97.5c40.2,59.7,95.1,107.9,159.5,140c22,9.5,39,15,52.5,19.5c19,5.7,39,6.9,58.5,3.5
	c26.2-5.3,49-21.2,63-44c5.8-13.9,7.7-29.1,5.5-44C586.5,481.5,580.5,479,571,474.5z"/>
<path class="st0" d="M664.5,134C594.6,63.5,499.3,24.2,400,25C194.6,26.1,28.9,193.5,30,398.9c0.3,64.4,17.4,127.7,49.5,183.6
	L29.5,775l197-50C281,754.6,342,770.1,404,770h-4c205.4,1.3,373.1-164.1,374.4-369.6C775.1,300.5,735.5,204.4,664.5,134L664.5,134z
	 M400,706c-55.5,0-109.9-15-157.5-43.5l-11-6.5l-117,30.5l31-114l-7-11.5C48.5,416,93,225.5,238,135.5
	c121.5-75.4,278.9-57.7,380.5,43C676.7,236.3,709.3,315,709,397C708.7,567.5,570.5,705.7,400,706z"/>
</svg>
