<?xml version="1.0" encoding="utf-8"?>
<!-- Generator: Adobe Illustrator 21.0.0, SVG Export Plug-In . SVG Version: 6.00 Build 0)  -->
<svg version="1.1" id="Capa_1" xmlns="http://www.w3.org/2000/svg" xmlns:xlink="http://www.w3.org/1999/xlink" x="0px" y="0px"
	 viewBox="0 0 256 32" style="enable-background:new 0 0 256 32;" xml:space="preserve">
<style type="text/css">
	.st0{fill:#FFFFFF;}
	.st1{fill:#1BA0C9;}
</style>
<g>
	<g>
		<g>
			<path class="st0" d="M108.9,16c0-9.6,6.7-16,16.6-16c3.8,0,7.9,1.6,10.4,4.1V0h7.7v32h-7.7v-4.1c-2.4,2.5-6.6,4.1-10.4,4.1
				C115.6,32,108.9,25.6,108.9,16z M135.9,16c0-5.8-3.8-9.6-9.6-9.6c-5.8,0-9.7,3.8-9.7,9.6c0,5.8,3.9,9.6,9.7,9.6
				C132.1,25.6,135.9,21.8,135.9,16z"/>
			<path class="st0" d="M149.5,0h7.7v3.2c2.1-1.9,5.6-3.2,8.7-3.2c8.8,0,14.6,5,14.6,12.6V32h-7.7V13.5c0-4.2-3.1-6.9-7.8-6.9
				c-4.7,0-7.8,2.7-7.8,6.9V32h-7.7V0z"/>
			<path class="st0" d="M189,22.9V6.4h-5.1V0h5.1l0,0h7.7l0,0h8.1v6.4h-8.1v16.5c0,1.6,1.2,2.7,2.8,2.7h5.6v5.5
				c-1.2,0.5-3.3,0.9-5.4,0.9C193.2,32,189,28.3,189,22.9z"/>
			<path class="st0" d="M211,0h7.7v7H211V0z M211,13.4h7.7V32H211V13.4z"/>
			<path class="st0" d="M225.2,0h7.7v10.9L243.7,0h10.7l-13.6,13.3L256,32h-9.8l-10.7-13.3l-2.5,2.5V32h-7.7V0z"/>
			<path class="st0" d="M69.4,0h8v13.4h18.8V0h8v32h-8V21.1H77.3V32h-8V0z"/>
		</g>
	</g>
	<g>
		<polygon class="st1" points="48.1,0 37.2,10.9 29.3,18.8 18.9,29.3 18.9,18.8 7.9,18.8 7.9,32 0,32 0,0 7.9,0 7.9,10.9 18.9,10.9 
			18.9,0 26.8,0 26.8,10.9 37.7,0 		"/>
		<polygon class="st0" points="48.6,31.8 26.8,31.8 37.7,20.9 		"/>
	</g>
</g>
</svg>
