<?xml version="1.0" encoding="utf-8"?>
<!-- Generator: Adobe Illustrator 21.0.0, SVG Export Plug-In . SVG Version: 6.00 Build 0)  -->
<svg version="1.1" id="Capa_1" xmlns="http://www.w3.org/2000/svg" xmlns:xlink="http://www.w3.org/1999/xlink" x="0px" y="0px"
	 viewBox="0 0 300 122" style="enable-background:new 0 0 300 122;" xml:space="preserve">
<style type="text/css">
	.st0{fill:#00C0F9;}
</style>
<g>
	<path class="st0" d="M152.5,24c-7-0.4-10.5,0.2-10.6,0.2l-0.9-0.3c0,13.4-0.2,45.9,0,61c0.9,0,3.2-0.4,3.9-0.6
		c0.3-0.1,0.6-0.2,0.9-0.2c2.3-0.8,3.5-2.3,4.9-1.3c0.5,0.4,1.1,1,1.7,2.2c0-7.1-0.2-27.4-0.2-41.6c3.4-4,8.9,9.7,19.2,41
		c2.2-2.4,1.1,4.9,6,0c0.4-0.4,1.1-1.9,3.1-1.1c0.8,0.3,2.2,1.9,3.1,1.7C173.8,57.8,166.7,28.8,152.5,24z"/>
	<path class="st0" d="M138,24.3c-1-0.5-2.4,0.1-3.9,1.1c-2,1.4-4-1.9-5.6-0.1c-1.3,1.5-2.1,2.6-2.1,2.6l0,4.4
		c-5.5-5.2-12.9-8.5-21-8.5c-16.8,0-30.4,13.6-30.4,30.4c0,10.5,5.3,19.8,13.5,25.3C81.1,88.3,69,96.6,54.9,96.6
		c-12.1,0-26-7.1-33.5-15.5c-0.6-0.7,1.8,3,1,2.4c-5.1-3.7-11.9-18.9-12.3-31.1c0-0.8,1.5,2.2,1.5,1.5c0.1-1,0.4-2.1,0.5-3.1
		C13.9,29.2,30.8,14.2,54.4,9c0,0,7.3-1.5,14-1.8C69,2.6,51.2,0.6,51.2,0.6c-2.9,0-8.8,1-15.5,4.2C33.7,4.6,45.9,0,45,0.2
		C33.6,2.7,13.1,11.8,7.4,21.5c2.4-1.9,3.9-1.8,3.1-0.8C3.5,29.9,0,41.3,0,54c0,30.1,24.4,54.4,54.4,54.4c18.8,0,35.4-9.6,45.2-24.1
		c1.9,0.4,3.8,0.6,5.8,0.6c8,0,15.3-3.1,20.7-8.1l0,2.4c0,0,0.7,0.9,1.7,2c-0.2-1,0.4-1.1,0.6-1.9c0.5,0.7,0.8,1.5,0.4,2.6
		c1,0.6,2.4,1.2,3.2,1.5c0.8,0.4,0.4,0.5,1.1,0.1c0.5-0.3,0.9-0.8,1.3-1.6c0.3,0.6,4.1,3.3,3.8,2.6c-0.4-0.9-0.7-2.2-1-3.2
		c1.2,2.5,1,2.6,1.9,3.6C136.9,68.4,135.2,47.2,138,24.3z M105.1,75c-0.2,0-0.3,0-0.5,0c0.4-1,0.8-2,1.2-3.1
		c1.9-5.6,2.6-3.2,2.6-9.5l-1.2-2.9c0,0-0.6-6.6-1.6-9.6c-3.5,4-5.7,10.8-5.7,10.8c-2.4,3.3-3.7,4.2-5.1,8.4
		c-0.3,0.8-0.6,1.6-1.1,2.5c-5.7-3.7-9.5-10.1-9.5-17.5c0-11.5,9.3-20.8,20.8-20.8c11.5,0,20.8,9.3,20.8,20.8
		C125.9,65.6,116.6,75,105.1,75z"/>
	<path class="st0" d="M221.6,33c-1.1-1.4-3.6,0.2,3.1-3.1c2.7-1.1-3.8-2.5,5.7-2.9c-5.5,0.3-14.7-0.7-18.4,2
		c-11.8,8.7-12.8,25.2-18.4,24.7c-5.8-0.4-8.1-21.2-20.8-28.8c-1.9-1.2,5.1,3.9,1.9,2.7c-4.2-3.6-9.1-3.7-11.5-3.6
		c1.7,0.3-1.5,0.8-0.5,1.7c7,6.4,12.4,22.3,26.7,58.3c0.5,1.2,9.1,0.9,9.9,0c4.1-9.9,8.7-30.9,17.4-46
		C216.7,37.9,219.5,33.5,221.6,33z"/>
	<path class="st0" d="M297.9,17.2c0,0-2.1-3.4,2.1-5.5c-6.4,1.4-18.2,19.4-23.6,31.7c-0.5,1.1-0.9,2.2-1.2,3.2
		c-3.5-13-15.3-22.6-29.4-22.6c-19.1,0-30.4,12.6-30.4,30.4c0,10.7,5.6,20.2,14,25.6c-16.3-13.1-4.6-35.7-4.3-36.1
		c4.8-7.4,10.1-10.6,20.5-10.6c11.5,0,20.8,9.3,20.8,20.8c0,11.5-9.3,20.8-20.8,20.8c-9.4,0-17.3-6.2-19.9-14.7
		c-3,8.9,4.1,20.1,10.7,22.7c4.4,1.7,6,1.9,9.5,1.9c8.6,0,16.4-3.6,22-9.4c0.7,6.5,3.5,9.6,4,10.9c0.1,0,0.6-0.1,0.8-0.2
		c0.1,0,0.1-0.9,0.5-0.8c0-3.4,0.9,0.3,1-0.1c0.6-2.1,1.3-1.4,1.3-2.1c0-2.9,0.5,0.1,0.8-0.4c0.2-0.3,0.7-2.3,0.9-2.6
		c0.3-0.5,0-7.6,0.2-8.1c0.1-0.3,0.4,0.8,0.3,7.2c0.1,0.1,0.2,0,0.3-0.1c0.8-4.3,0.1-13.3-0.7-20.6c3.7,5.4,9.8,8.6,7.5,14.6
		c-3.6,9.6-8.2,17.3-20.7,34.6c0.6,0.7,3.4-1.3,3.4-1.3s-1.7,2.3-10.3,15.4c4.8-5.4,2.5-0.6,9.3-8.4c4.4-5,3.9,1.5,9.9-9.3
		c1-1.1-1.8,4.7-2.1,5c8.7-9.3,14.6-22,16.9-26.1c12.2-24,0-21.1-4.8-32.2c-1.6-8.5,5.8-16.2,9-21C300.8,21.6,297.9,17.2,297.9,17.2
		z"/>
</g>
</svg>
