<svg xmlns="http://www.w3.org/2000/svg" version="1.1" xmlns:xlink="http://www.w3.org/1999/xlink" xmlns:svgjs="http://svgjs.com/svgjs" width="100%" height="100%"><svg width="100%" height="100%" viewBox="0 0 48 48" version="1.1" xmlns="http://www.w3.org/2000/svg" xmlns:xlink="http://www.w3.org/1999/xlink" xml:space="preserve" xmlns:serif="http://www.serif.com/" style="fill-rule:evenodd;clip-rule:evenodd;stroke-linejoin:round;stroke-miterlimit:2;"><g><rect x="0" y="0" width="48" height="48" style="fill:#1c1c1c;"></rect><path d="M-12.842,16.89c5.194,-2.782 9.036,-5.916 10.452,-9.427c10.762,-17.191 28.573,-11.769 31.5,-9.848c10.77,7.067 10.191,15.757 10.191,15.757c0.566,3.793 -2.027,6.025 -2.374,6.314c-0.348,0.29 -2.626,-0.549 -5.269,3.071c-3.301,4.518 -3.385,7.615 -3.552,12.885c-0.677,21.369 -18.375,31.339 -30.496,33.521c-3.085,0.556 -6.16,1.285 -9.1,2.084l-1.352,0l-0,-54.357Z" style="fill:#00cefe;"></path><path d="M16.929,2.157c-13.274,-1.934 -12.423,18.698 -20.361,22.54c0,0 6.123,0.609 11.378,-4.518c5.255,-5.127 18.124,-7.329 24.812,-6.547c-0,0 -2.581,-0.433 -7.717,-6.641c-1.704,-2.059 -5.421,-4.442 -8.112,-4.834Z" style="fill:#8af5f0;fill-rule:nonzero;"></path><path d="M10.808,9.513c-2.273,8.447 -4.038,14.819 -9.984,19.355c0,0 15.556,1.138 17.945,-6.335c2.388,-7.473 5.387,-9.614 14.105,-8.99c-10.321,-2.473 -10.124,-8.346 -15.403,-8.346c-2.9,-0 -5.5,1.32 -6.663,4.316Z" style="fill:#145f99;fill-rule:nonzero;"></path><path d="M33.728,19.49c-0.436,-0.067 -1.697,-4.207 -5.067,-6.036c0.753,-0.132 7.839,0.536 10.006,-1.529c1.061,5.283 29.774,12.857 33.465,23.055c0,-0 -13.436,-11.615 -38.404,-15.49Z" style="fill:#383939;"></path><path d="M20.54,10.273c0,1.487 -1.225,2.693 -2.736,2.693c-1.511,0 -2.736,-1.206 -2.736,-2.693c0,-1.488 1.225,-2.694 2.736,-2.694c1.511,-0 2.736,1.206 2.736,2.694" style="fill:#323036;fill-rule:nonzero;"></path></g></svg><style>@media (prefers-color-scheme: light) { :root { filter: none; } }
</style></svg>