<?xml version="1.0" encoding="utf-8"?>
<!-- Generator: Adobe Illustrator 25.4.1, SVG Export Plug-In . SVG Version: 6.00 Build 0)  -->
<svg version="1.1" id="Capa_1" xmlns="http://www.w3.org/2000/svg" xmlns:xlink="http://www.w3.org/1999/xlink" x="0px" y="0px"
	 viewBox="0 0 490 178" style="enable-background:new 0 0 490 178;" xml:space="preserve">
<style type="text/css">
	.st0{fill:#FFFFFF;}
</style>
<g>
	<path class="st0" d="M89,0c-24.6,0-46.8,10-63,26.1C10,42.2,0,64.4,0,89c0,7.8,1,15.5,3,23c2,7.5,5,14.7,8.9,21.5
		c1.8,3.2,5.9,4.3,9.1,2.4c3.2-1.8,4.3-5.9,2.4-9.1v0c-3.3-5.7-5.8-11.9-7.6-18.3c-1.7-6.3-2.6-12.9-2.6-19.6
		c0-20.9,8.5-39.8,22.2-53.5C49.2,21.8,68.1,13.3,89,13.3c20.9,0,39.8,8.5,53.6,22.2c13.7,13.7,22.2,32.6,22.2,53.5
		c0,20.9-8.5,39.8-22.2,53.5c-13.7,13.7-32.6,22.2-53.6,22.2c-9.5,0-18.2-3.9-24.4-10.1c-6.3-6.2-10.1-14.9-10.1-24.4
		c0-9.5,3.9-18.2,10.1-24.4c2.3-2.3,4.8-4.2,7.7-5.8v26.4c0,0.1,0,0.3,0,0.4h0c0,4.6,1.9,8.8,4.9,11.9c3,3,7.2,4.9,11.9,4.9
		c0,0,0,0,0,0s0,0,0,0v0c0.3,0,0.5,0,0.8-0.1c4.3-0.2,8.2-2,11.1-4.9c3-3,4.9-7.2,4.9-11.9h0V95.6h24.4v0c5.3,0,10.1-2.1,13.5-5.6
		c3.5-3.5,5.6-8.2,5.6-13.5s-2.1-10.1-5.6-13.5c-3.5-3.5-8.2-5.6-13.5-5.6h-23.1c-4,0-7.7,1.6-10.3,4.3c-2.6,2.6-4.3,6.3-4.3,10.3h0
		v10.5H89c-1.2,0-2.4,0.1-3.5,0.1v-5.4h0c0-3.9-1.6-7.5-4.2-10s-6.1-4.2-10-4.2H58.5c-3.7,0-6.6,3-6.6,6.6c0,3.7,3,6.6,6.6,6.6h12.8
		c0.2,0,0.5,0.1,0.6,0.3c0.2,0.2,0.3,0.4,0.3,0.6h0v8.3c-6.5,2.4-12.3,6.2-17,11c-8.7,8.7-14,20.6-14,33.8c0,13.2,5.4,25.2,14,33.8
		c8.7,8.7,20.6,14,33.8,14c24.6,0,46.8-10,63-26.1s26.1-38.4,26.1-62.9s-10-46.8-26.1-62.9C135.9,10,113.6,0,89,0z M105.8,71.9
		L105.8,71.9L105.8,71.9c0-0.4,0.2-0.7,0.4-0.9c0.2-0.2,0.5-0.4,0.9-0.4h23.1c1.6,0,3.1,0.7,4.1,1.7c1.1,1.1,1.7,2.5,1.7,4.1
		c0,1.6-0.7,3.1-1.7,4.1c-1.1,1.1-2.5,1.7-4.1,1.7v0h-24.4V71.9z M89,95.6h3.6v31.1h0c0,1-0.4,1.8-1,2.5c-0.6,0.6-1.5,1-2.5,1
		c0,0,0,0,0,0s0,0,0,0c-1,0-1.8-0.4-2.5-1c-0.6-0.6-1-1.5-1-2.5c0-0.2,0-0.4,0-0.5V95.8C86.7,95.7,87.8,95.6,89,95.6z"/>
	
		<ellipse transform="matrix(1 -1.711951e-03 1.711951e-03 1 -7.013172e-02 0.1177)" class="st0" cx="68.7" cy="41" rx="10.2" ry="10.2"/>
	<path class="st0" d="M248.4,46.8c5.5,0,8.9-2.9,8.9-6.7c-0.1-8.2-12-5.7-12-9.2c0-1.1,0.9-1.7,2.5-1.7c1.7,0,2.7,0.8,3.1,1.9
		c0.1,0.3,0.4,0.6,0.8,0.6h4.6c0.3,0,0.5-0.1,0.6-0.3c0.2-0.2,0.2-0.4,0.2-0.7c-0.8-3.8-3.9-6.5-9.1-6.5c-5.8,0-9,3.1-9,6.8
		c0,8.1,12,5.5,12,9.1c0,1-0.9,1.8-2.6,1.8c-1.6,0-2.9-0.8-3.3-2c-0.1-0.3-0.4-0.6-0.8-0.6h-5.1c-0.3,0-0.5,0.1-0.6,0.3
		c-0.2,0.2-0.2,0.4-0.2,0.7C239.2,44,243,46.8,248.4,46.8z"/>
	<path class="st0" d="M227.5,29.3h3c0.3,0,0.6-0.2,0.8-0.5l3.7-9c0.1-0.3,0.1-0.5-0.1-0.8c-0.2-0.2-0.4-0.4-0.7-0.4h-5
		c-0.4,0-0.7,0.3-0.8,0.7l-1.7,9c0,0.2,0,0.5,0.2,0.7C227,29.2,227.3,29.3,227.5,29.3z"/>
	<polygon class="st0" points="257.3,40.1 257.3,40.1 257.3,40.1 	"/>
	<path class="st0" d="M200.1,46.5h5.1c0.4,0,0.8-0.4,0.8-0.8V19.6c0-0.4-0.4-0.8-0.8-0.8h-5.1c-0.4,0-0.8,0.4-0.8,0.8v26.1
		C199.3,46.1,199.7,46.5,200.1,46.5z"/>
	<path class="st0" d="M210.2,30.1h1.1c0.4,0,0.8,0.4,0.8,0.8v7.9c0,5.7,3.2,7.7,7.8,7.7h2.6c0.4,0,0.8-0.4,0.8-0.8v-4.1
		c0-0.4-0.4-0.8-0.8-0.8h-1.6c-1.5,0-2.1-0.6-2.1-1.9v-8c0-0.4,0.4-0.8,0.8-0.8h2.8c0.4,0,0.8-0.4,0.8-0.8v-4c0-0.4-0.4-0.8-0.8-0.8
		h-2.8c-0.4,0-0.8-0.4-0.8-0.8v-3.7c0-0.4-0.4-0.8-0.8-0.8h-5.1c-0.4,0-0.8,0.4-0.8,0.8v3.7c0,0.4-0.4,0.8-0.8,0.8h-1.1
		c-0.4,0-0.8,0.4-0.8,0.8v4C209.4,29.7,209.7,30.1,210.2,30.1z"/>
	<path class="st0" d="M257.3,76.2L257.3,76.2c0-14-9.3-24.5-28-24.5h-28c-1.1,0-2,0.9-2,2v72.1c0,1.1,0.9,2,2,2h14.5
		c1.1,0,2-0.9,2-2v-23.3c0-1.1,0.9-2,2-2h9.5C248.7,100.4,257.3,88.7,257.3,76.2z M227.9,85.7h-8.1c-1.1,0-2-0.9-2-2v0V68.6
		c0-1.1,0.9-2,2-2h8.1c7.4,0,10.5,3.7,10.5,9.5C238.4,82,235.3,85.7,227.9,85.7z"/>
	<path class="st0" d="M435.9,127.3h20.2c1.1,0,2-0.9,2-2v-4.1c0-1.1-0.9-2-2-2h-9.7c-1.1,0-2-0.9-2-2V86.4c0-1.1-0.9-2-2-2h-6.5
		c-1.1,0-2,0.9-2,2v39C433.9,126.4,434.8,127.3,435.9,127.3z"/>
	<path class="st0" d="M423.2,106.8c-0.6-0.4-0.9-0.9-0.9-1.6c0-0.7,0.3-1.3,0.8-1.7c2.3-1.7,3.8-4.4,3.8-8c0-6.8-5.2-11.1-14-11.1
		h-17.3c-1.1,0-2,0.9-2,2v39c0,1.1,0.9,2,2,2h18c9.1,0,14.3-4.6,14.3-11.7C427.8,112.1,426.1,108.7,423.2,106.8z M404,94.8
		c0-1.1,0.9-2,2-2h4.9c3.4,0,5.3,1.6,5.3,4.5c0,2.9-1.9,4.5-5.3,4.5H406c-1.1,0-2-0.9-2-2V94.8z M411.7,118.9H406c-1.1,0-2-0.9-2-2
		v-5.5c0-1.1,0.9-2,2-2h5.6c3.5,0,5.6,1.8,5.6,4.8C417.3,117.3,415.2,118.9,411.7,118.9z"/>
	<path class="st0" d="M489.4,125.3V121c0-1.1-0.9-2-2-2h-11.9c-1.1,0-2-0.9-2-2v-5.4c0-1.1,0.9-2,2-2h10c1.1,0,2-0.9,2-2v-4.1
		c0-1.1-0.9-2-2-2h-10c-1.1,0-2-0.9-2-2v-4.7c0-1.1,0.9-2,2-2h11.9c1.1,0,2-0.9,2-2v-4.4c0-1.1-0.9-2-2-2v0h-22.3c-1.1,0-2,0.9-2,2
		v39c0,1.1,0.9,2,2,2h22.3C488.5,127.3,489.4,126.4,489.4,125.3z"/>
	<path class="st0" d="M272.5,83.8c-12.2,0-22.1,9.1-22.1,22c0,12.9,9.9,22,22.1,22c12.2,0,22-9.1,22-22
		C294.4,92.8,284.7,83.8,272.5,83.8z M272.4,118.2c-7,0-11.4-5-11.4-12.5c0-7.7,4.4-12.5,11.4-12.5c6.9,0,11.3,4.8,11.3,12.5
		C283.8,113.3,279.3,118.2,272.4,118.2z"/>
	<path class="st0" d="M310.2,96.1c0-2.7,1.9-4,4.4-3.9c2.3,0,4,1.2,4.7,3.1c0.3,0.8,1,1.4,1.9,1.4h7.4c0.6,0,1.2-0.3,1.6-0.7
		c0.4-0.5,0.5-1.1,0.4-1.7c-1.4-6.7-7.4-10.4-15.8-10.4c-9,0-15.7,4.5-15.7,12.7c-0.1,15.2,21.4,11,21.4,18.9c0,2.5-2,4-5,4
		c-2.5,0-4.4-1.1-5.1-3.5c-0.3-0.9-1-1.4-1.9-1.4h-7.3c-0.6,0-1.2,0.2-1.6,0.7c-0.4,0.5-0.5,1.1-0.4,1.7c1.4,7.1,8.1,10.9,16.5,10.9
		c10,0,15.7-6,15.7-13.2v0C331.4,100.2,310.2,103.5,310.2,96.1z"/>
	<path class="st0" d="M386,86.4c0-1.1-0.9-2-2-2h-6.5c-1.1,0-2,0.9-2,2v39c0,1.1,0.9,2,2,2h6.5c1.1,0,2-0.9,2-2V86.4z"/>
	<path class="st0" d="M347.8,96.1c0-2.7,1.9-4,4.4-3.9c2.3,0,4,1.2,4.7,3.1c0.3,0.8,1,1.4,1.9,1.4h7.4c0.6,0,1.2-0.3,1.6-0.7
		c0.4-0.5,0.5-1.1,0.4-1.7c-1.4-6.7-7.4-10.4-15.8-10.4c-9,0-15.7,4.5-15.7,12.7c-0.1,15.2,21.4,11,21.4,18.9c0,2.5-2,4-5,4
		c-2.5,0-4.4-1.1-5.1-3.5c-0.3-0.9-1-1.4-1.9-1.4h-7.3c-0.6,0-1.2,0.2-1.6,0.7c-0.4,0.5-0.5,1.1-0.4,1.7c1.4,7.1,8.1,10.9,16.5,10.9
		c10,0,15.7-6,15.7-13.2l0,0C369.1,100.2,347.8,103.5,347.8,96.1z"/>
	<polygon class="st0" points="375.6,148.2 378.9,148.2 378.9,142.6 383.2,142.6 383.2,139.9 378.9,139.9 378.9,137 384.6,137 
		384.6,134.3 375.6,134.3 	"/>
	<path class="st0" d="M391.4,137c-3.2,0-5.7,2.2-5.7,5.7c0,3.5,2.5,5.7,5.7,5.7c3.2,0,5.8-2.2,5.8-5.7S394.7,137,391.4,137z
		 M391.4,145.4c-1.2,0-2.3-0.9-2.3-2.7h0c0-1.9,1.1-2.7,2.3-2.7c1.2,0,2.3,0.9,2.3,2.7C393.7,144.5,392.6,145.4,391.4,145.4z"/>
	<path class="st0" d="M406.5,143.1c0,1.5-0.8,2.3-2.1,2.3c-1.3,0-2.1-0.8-2.1-2.3v-6h-3.4v6.4c0,2.9,1.7,4.7,4.3,4.7
		c1.5,0,2.7-0.7,3.3-1.6v1.5h3.4v-11h-3.4V143.1z"/>
	<path class="st0" d="M419.1,137c-1.5,0-2.7,0.7-3.3,1.6v-1.5h-3.4v11h3.4v-6c0-1.5,0.8-2.3,2.1-2.3c1.3,0,2.1,0.8,2.1,2.3v6h3.4
		v-6.4C423.3,138.8,421.6,137,419.1,137z"/>
	<path class="st0" d="M433.3,138.7c-0.7-1-1.9-1.7-3.4-1.7c-2.7,0-4.9,2.2-4.9,5.7c0,3.5,2.2,5.7,4.9,5.7c1.6,0,2.8-0.7,3.4-1.7v1.6
		h3.4v-14.6h-3.4V138.7z M430.8,145.4c-1.3,0-2.4-1-2.4-2.7c0-1.8,1.1-2.7,2.4-2.7c1.3,0,2.4,1,2.4,2.7
		C433.3,144.4,432.1,145.4,430.8,145.4z"/>
	<path class="st0" d="M446.7,138.7c-0.6-1-1.8-1.7-3.4-1.7c-2.7,0-4.9,2.2-4.9,5.7v0c0,3.5,2.2,5.7,4.8,5.7c1.6,0,2.8-0.8,3.4-1.7
		v1.6h3.4v-11h-3.4V138.7z M444.3,145.4c-1.3,0-2.4-1-2.4-2.7c0-1.8,1.1-2.7,2.4-2.7c1.3,0,2.4,1,2.4,2.7
		C446.7,144.4,445.6,145.4,444.3,145.4z"/>
	<path class="st0" d="M456.5,144.4V140h2.2v-2.8h-2.2v-2.7h-3.4v2.7h-1.3v2.8h1.3v4.4l0,0c0,2.9,1.6,3.8,3.9,3.8h1.7v-2.9h-1.2
		C456.7,145.3,456.5,145,456.5,144.4z"/>
	<rect x="460.6" y="137.1" class="st0" width="3.4" height="11"/>
	<path class="st0" d="M462.3,132.3c-1.2,0-2,0.8-2,1.8c0,1,0.8,1.8,2,1.8c1.2,0,2-0.8,2-1.8C464.3,133.2,463.5,132.3,462.3,132.3z"
		/>
	<path class="st0" d="M471.5,137c-3.2,0-5.7,2.2-5.7,5.7c0,3.5,2.5,5.7,5.7,5.7c3.2,0,5.8-2.2,5.8-5.7S474.7,137,471.5,137z
		 M471.4,145.4c-1.2,0-2.3-0.9-2.3-2.7h0c0-1.9,1.1-2.7,2.3-2.7c1.2,0,2.3,0.9,2.3,2.7C473.8,144.5,472.6,145.4,471.4,145.4z"/>
	<path class="st0" d="M485.7,137c-1.5,0-2.7,0.7-3.3,1.6v-1.5H479v11h3.4v-6c0-1.5,0.8-2.3,2.1-2.3c1.3,0,2.1,0.8,2.1,2.3v6h3.4
		v-6.4C490,138.8,488.3,137,485.7,137z"/>
</g>
</svg>
