<?xml version="1.0" encoding="utf-8"?>
<!-- Generator: Adobe Illustrator 25.4.1, SVG Export Plug-In . SVG Version: 6.00 Build 0)  -->
<svg version="1.1" id="Capa_1" xmlns="http://www.w3.org/2000/svg" xmlns:xlink="http://www.w3.org/1999/xlink" x="0px" y="0px"
	 viewBox="0 0 232 106" style="enable-background:new 0 0 232 106;" xml:space="preserve">
<style type="text/css">
	.st0{fill:#FFFFFF;}
</style>
<g id="XMLID_40_">
	<g id="XMLID_199_">
		<g>
			<path id="XMLID_00000082346584713282157310000014750395442969324731_" class="st0" d="M1.1,102.7l8.2-18.8h0.4l8.2,18.8h-3
				l-2.1-5H4.7l-2.1,5H1.1z M5.1,96.6h7.4l-3.7-9L5.1,96.6z"/>
			<path id="XMLID_00000034812030486210421690000014554148598299441050_" class="st0" d="M24.6,103c-1.6,0-2.9-0.6-4-1.7
				c-1.1-1.1-1.6-2.7-1.6-4.7c0-2,0.6-3.7,1.7-5c1.1-1.3,2.6-1.9,4.3-1.9c1,0,2.1,0.2,3.3,0.7l-0.3,1.8c-1.6-0.9-3-1.3-4.2-1.3
				c-1,0.5-1.7,1.3-2.1,2.3c-0.4,1.1-0.6,2.1-0.6,3.2c0,1.4,0.4,2.6,1.2,3.5c0.8,0.9,1.8,1.4,3,1.4c1.1,0,2.2-0.3,3.2-0.7v1
				C27.2,102.6,25.9,103,24.6,103z"/>
			<path id="XMLID_00000075883340489546767010000006721028503665151896_" class="st0" d="M32.5,95.9c0,2,0.4,3.4,1.3,4.3
				c0.9,0.9,2,1.3,3.3,1.3s2.5-0.3,3.6-0.7v1c-1.5,0.9-3,1.3-4.4,1.3c-1.8,0-3.2-0.5-4.4-1.6c-1.1-1.1-1.7-2.7-1.7-4.7
				c0-2.1,0.6-3.7,1.8-5c1.2-1.2,2.7-1.9,4.5-1.9c1.4,0,2.5,0.5,3.4,1.6c0.9,1.1,1.4,2.5,1.4,4.5H32.5z M35.2,91.1
				c-0.6,0.3-1.2,0.8-1.7,1.5c-0.5,0.7-0.8,1.5-0.9,2.4h6.5c-0.1-0.8-0.2-1.4-0.5-2c-0.3-0.6-0.7-1-1.1-1.2
				C36.7,91.3,35.9,91.1,35.2,91.1z"/>
			<path id="XMLID_00000083776344187835884010000002455183999972828092_" class="st0" d="M49.1,90.3c0.6-0.3,1.3-0.5,2.1-0.5
				s1.5,0.3,2.2,0.9s1,1.7,1,3.2v8.7H52v-8.4c0-0.9-0.2-1.6-0.5-2c-0.3-0.5-0.9-0.7-1.7-0.7c-0.8,0-1.7,0.5-2.7,1.6v9.6h-2.4V94
				c0-1.3-0.5-2.3-1.4-3l1.4-1.1l2.3,2C47.8,91.2,48.5,90.6,49.1,90.3z"/>
			<path id="XMLID_00000085941659485287202920000004635394215977094058_" class="st0" d="M61.6,101.5c0.2,0.3,0.6,0.4,1.1,0.4
				c0.5,0,1.1-0.1,1.9-0.4v0.8c-1.1,0.5-2,0.7-2.9,0.7c-0.9,0-1.5-0.2-2-0.7c-0.5-0.5-0.7-1.2-0.7-2.2v-9l-2.2-0.4v-0.6H59v-1
				l2.3-1.7v2.7h3.3v1h-3.3v9.1C61.3,100.8,61.4,101.2,61.6,101.5z"/>
			<path id="XMLID_00000020389888322873606980000017371996830519359124_" class="st0" d="M73,89.8c1.6,0,3,0.6,4,1.7
				c1.1,1.1,1.6,2.6,1.6,4.6c0,1.2-0.2,2.3-0.6,3.3c-0.4,0.9-1,1.7-1.7,2.2c-1.3,1-2.8,1.5-4.4,1.5c-1.6,0-3-0.6-4-1.7
				c-1.1-1.1-1.6-2.6-1.6-4.6c0-1.2,0.2-2.3,0.6-3.3c0.4-0.9,1-1.7,1.7-2.2C69.9,90.3,71.4,89.8,73,89.8z M72.5,102.1
				c0.8,0,1.5-0.3,2.1-0.9c1-1.1,1.6-2.6,1.6-4.4c0-1.8-0.3-3.3-0.9-4.3c-0.6-1-1.7-1.5-3.1-1.5C71,91.3,70.2,92,69.7,93
				c-0.5,1-0.8,2.3-0.8,3.7s0.3,2.7,0.9,3.8C70.3,101.5,71.2,102.1,72.5,102.1z"/>
			<path id="XMLID_00000084488983936132030780000014319259928590542262_" class="st0" d="M91.4,84.3v18.4h-2.6V84.3H91.4z"/>
			<path id="XMLID_00000112632514537229459160000015227312553442173374_" class="st0" d="M100.5,90.3c0.6-0.3,1.3-0.5,2.1-0.5
				c0.8,0,1.5,0.3,2.2,0.9c0.7,0.6,1,1.7,1,3.2v8.7h-2.4v-8.4c0-0.9-0.2-1.6-0.5-2c-0.3-0.5-0.9-0.7-1.7-0.7c-0.8,0-1.7,0.5-2.7,1.6
				v9.6h-2.4V94c0-1.3-0.5-2.3-1.4-3l1.4-1.1l2.3,2C99.2,91.2,99.9,90.6,100.5,90.3z"/>
			<path id="XMLID_00000065793952765840507890000015624982673729454255_" class="st0" d="M113,101.5c0.2,0.3,0.6,0.4,1.1,0.4
				c0.5,0,1.1-0.1,1.9-0.4v0.8c-1.1,0.5-2,0.7-2.9,0.7s-1.5-0.2-2-0.7s-0.7-1.2-0.7-2.2v-9l-2.2-0.4v-0.6h2.2v-1l2.3-1.7v2.7h3.3v1
				h-3.3v9.1C112.7,100.8,112.8,101.2,113,101.5z"/>
			<path id="XMLID_00000005969243764143528470000013350348516165191347_" class="st0" d="M119.9,95.9c0,2,0.4,3.4,1.3,4.3
				c0.9,0.9,2,1.3,3.3,1.3c1.3,0,2.5-0.3,3.6-0.7v1c-1.5,0.9-3,1.3-4.4,1.3c-1.8,0-3.2-0.5-4.4-1.6c-1.1-1.1-1.7-2.7-1.7-4.7
				c0-2.1,0.6-3.7,1.8-5c1.2-1.2,2.7-1.9,4.5-1.9c1.4,0,2.5,0.5,3.4,1.6c0.9,1.1,1.4,2.5,1.4,4.5H119.9z M122.6,91.1
				c-0.6,0.3-1.2,0.8-1.7,1.5c-0.5,0.7-0.8,1.5-0.9,2.4h6.5c-0.1-0.8-0.2-1.4-0.5-2c-0.3-0.6-0.7-1-1.1-1.2
				C124.1,91.3,123.3,91.1,122.6,91.1z"/>
			<path id="XMLID_00000047751568649373034410000016092334192446915721_" class="st0" d="M134.1,102.7h-2.3V90.1h1.6l0.6,2.3
				c0.4-0.6,1-1.3,1.8-1.8c0.8-0.6,1.6-0.9,2.5-1.1l0.3,1.9c-0.7,0-1.5,0.2-2.3,0.6c-0.9,0.4-1.6,0.9-2.1,1.4V102.7z"/>
			<path id="XMLID_00000016061721344574651280000002088212910215138219_" class="st0" d="M145.3,90.3c0.6-0.3,1.3-0.5,2.1-0.5
				c0.8,0,1.5,0.3,2.2,0.9s1,1.7,1,3.2v8.7h-2.4v-8.4c0-0.9-0.2-1.6-0.5-2c-0.3-0.5-0.9-0.7-1.7-0.7s-1.7,0.5-2.7,1.6v9.6H141V94
				c0-1.3-0.5-2.3-1.4-3l1.4-1.1l2.3,2C144.1,91.2,144.7,90.6,145.3,90.3z"/>
			<path id="XMLID_00000100370771947184560290000003448551896769616313_" class="st0" d="M162.9,99c0,1.3,0.5,2.3,1.4,3l-1.4,1.1
				l-2.2-2c-1.5,1.3-2.8,2-4.1,2c-0.8,0-1.5-0.3-2.1-0.8c-0.6-0.5-0.9-1.2-0.9-2c0-0.8,0.2-1.4,0.7-2c0.5-0.5,1.1-0.9,1.9-1.2
				c1.3-0.5,2.8-0.8,4.4-0.9v-2.6c0-1.5-0.9-2.3-2.7-2.3c-1,0-2.2,0.2-3.6,0.7l-0.2-0.7c0.4-0.3,1-0.6,1.9-0.9
				c0.9-0.3,1.8-0.5,2.6-0.5c0.8,0,1.5,0.1,2.1,0.3c0.6,0.2,1,0.5,1.2,0.7c0.3,0.3,0.5,0.7,0.6,1.1c0.1,0.5,0.2,0.9,0.2,1.1
				c0,0.3,0,0.6,0,1.1V99z M160.6,99.7v-2.9c-1.3,0.1-2.4,0.4-3.3,0.9s-1.3,1-1.3,1.6c0,0.6,0.1,1.1,0.4,1.5
				c0.3,0.4,0.7,0.7,1.1,0.9c0.6-0.1,1.3-0.4,1.9-0.9C160.2,100.3,160.6,100,160.6,99.7z"/>
			<path id="XMLID_00000075878250642349186470000000300891452720659893_" class="st0" d="M171.3,103c-1.6,0-2.9-0.6-4-1.7
				c-1.1-1.1-1.6-2.7-1.6-4.7c0-2,0.6-3.7,1.7-5c1.1-1.3,2.6-1.9,4.3-1.9c1,0,2.1,0.2,3.3,0.7l-0.3,1.8c-1.6-0.9-3-1.3-4.2-1.3
				c-1,0.5-1.7,1.3-2.1,2.3c-0.4,1.1-0.6,2.1-0.6,3.2c0,1.4,0.4,2.6,1.2,3.5c0.8,0.9,1.8,1.4,3,1.4c1.1,0,2.2-0.3,3.2-0.7v1
				C173.9,102.6,172.6,103,171.3,103z"/>
			<path id="XMLID_00000120556787038556960480000014530993879395612319_" class="st0" d="M178.1,86.3c0-0.4,0.1-0.7,0.4-1
				c0.3-0.3,0.6-0.4,1-0.4c0.4,0,0.7,0.1,1,0.4c0.3,0.3,0.4,0.6,0.4,1c0,0.4-0.1,0.7-0.4,1c-0.3,0.3-0.6,0.4-1,0.4
				c-0.4,0-0.7-0.1-1-0.4C178.2,87,178.1,86.7,178.1,86.3z M178.3,102.7V90.1h2.3v12.5H178.3z"/>
			<path id="XMLID_00000173852143881306752570000013419519624526481561_" class="st0" d="M190.2,89.8c1.6,0,3,0.6,4,1.7
				c1.1,1.1,1.6,2.6,1.6,4.6c0,1.2-0.2,2.3-0.6,3.3c-0.4,0.9-1,1.7-1.7,2.2c-1.3,1-2.8,1.5-4.4,1.5s-3-0.6-4-1.7
				c-1.1-1.1-1.6-2.6-1.6-4.6c0-1.2,0.2-2.3,0.6-3.3c0.4-0.9,1-1.7,1.7-2.2C187.1,90.3,188.5,89.8,190.2,89.8z M189.6,102.1
				c0.8,0,1.5-0.3,2.1-0.9c1-1.1,1.6-2.6,1.6-4.4c0-1.8-0.3-3.3-0.9-4.3c-0.6-1-1.7-1.5-3.1-1.5c-1.1,0.4-1.9,1.1-2.4,2.2
				c-0.5,1-0.8,2.3-0.8,3.7s0.3,2.7,0.9,3.8C187.5,101.5,188.4,102.1,189.6,102.1z"/>
			<path id="XMLID_00000086666176838814394520000001607913146954423482_" class="st0" d="M203.1,90.3c0.6-0.3,1.3-0.5,2.1-0.5
				c0.8,0,1.5,0.3,2.2,0.9c0.7,0.6,1,1.7,1,3.2v8.7h-2.4v-8.4c0-0.9-0.2-1.6-0.5-2c-0.3-0.5-0.9-0.7-1.7-0.7s-1.7,0.5-2.7,1.6v9.6
				h-2.4V94c0-1.3-0.5-2.3-1.4-3l1.4-1.1l2.3,2C201.9,91.2,202.6,90.6,203.1,90.3z"/>
			<path id="XMLID_00000152963599099010514950000001654574039144092291_" class="st0" d="M220.7,99c0,1.3,0.5,2.3,1.4,3l-1.4,1.1
				l-2.2-2c-1.5,1.3-2.8,2-4.1,2c-0.8,0-1.5-0.3-2.1-0.8c-0.6-0.5-0.9-1.2-0.9-2c0-0.8,0.2-1.4,0.7-2c0.5-0.5,1.1-0.9,1.9-1.2
				c1.3-0.5,2.8-0.8,4.4-0.9v-2.6c0-1.5-0.9-2.3-2.7-2.3c-1,0-2.2,0.2-3.6,0.7l-0.2-0.7c0.4-0.3,1-0.6,1.9-0.9
				c0.9-0.3,1.8-0.5,2.6-0.5c0.8,0,1.5,0.1,2.1,0.3c0.6,0.2,1,0.5,1.2,0.7c0.3,0.3,0.5,0.7,0.6,1.1c0.1,0.5,0.2,0.9,0.2,1.1
				c0,0.3,0,0.6,0,1.1V99z M218.4,99.7v-2.9c-1.3,0.1-2.4,0.4-3.3,0.9c-0.9,0.5-1.3,1-1.3,1.6c0,0.6,0.1,1.1,0.4,1.5
				c0.3,0.4,0.7,0.7,1.1,0.9c0.6-0.1,1.3-0.4,1.9-0.9C218.1,100.3,218.4,100,218.4,99.7z"/>
			<path id="XMLID_00000098222174649162769830000006906411870750280335_" class="st0" d="M227.2,83.7v19h-2.3v-19H227.2z"/>
		</g>
	</g>
	<path id="XMLID_69_" class="st0" d="M137.8,30.3v22.9c-2.4-1.1-4-3.6-4-6.4V17.1C136.3,20.9,137.8,25.4,137.8,30.3z"/>
	<path id="XMLID_68_" class="st0" d="M137.8,53.9L137.8,53.9l-5.3,0c-2.5,0-4.6-1.7-5.1-4c-0.1-0.4-0.2-0.9-0.2-1.3V30.3
		c0-7.2-5.8-13-13-13c-7.2,0-13,5.8-13,13c0,7.2,5.8,13,13,13c3.7,0,7.1-1.6,9.4-4.1V52c-2.9,1.3-6.1,2-9.4,2
		c-13,0-23.6-10.6-23.6-23.6c0-13,10.6-23.6,23.6-23.6c6.8,0,12.9,2.9,17.2,7.5v32.7c0,0.4,0,0.8,0.1,1.2
		C132,51.2,134.6,53.6,137.8,53.9z"/>
	<path id="XMLID_63_" class="st0" d="M96.9,58.5c-6.8-3.3-15-5.7-24-6.5l-0.3,7c7.1-0.4,14.7,0.5,21.8,2.6c7.1,2,13.9,5,19.8,8.8
		C109.6,65.8,103.7,61.8,96.9,58.5z M155.4,51.9c-8.9,0.8-17.1,3.2-24,6.5c-6.9,3.3-12.7,7.3-17.3,11.9c5.9-3.8,12.7-6.8,19.8-8.8
		c7.1-2.1,14.7-2.9,21.8-2.6L155.4,51.9z"/>
	<path id="XMLID_60_" class="st0" d="M99.1,64.5c-6-2.2-13.1-3.8-20.8-4.4L78,64.8c6.2-0.3,12.8,0.3,18.9,1.7
		c6.2,1.4,12.1,3.4,17.2,6C110.2,69.4,105.1,66.7,99.1,64.5z M150,60.1c-7.7,0.6-14.9,2.2-20.8,4.4c-6,2.2-11.1,5-15,8
		c5.1-2.6,11-4.6,17.2-6c6.2-1.4,12.8-2,18.9-1.7L150,60.1z"/>
	<g id="XMLID_41_">
		<path id="XMLID_42_" class="st0" d="M135.9,3.6L135.9,3.6L135.9,3.6C135.8,3.6,135.8,3.6,135.9,3.6c-3,0-5.4,2.4-5.4,5.3
			s2.4,5.3,5.3,5.3c2.9,0,5.3-2.4,5.3-5.3C141.1,6,138.7,3.6,135.9,3.6z M136,7.3c0.7,0,1.4-0.2,1.9-0.4c0.2,0.5,0.4,1.1,0.4,1.8
			H136L136,7.3L136,7.3z M135.6,8.7h-2.4c0-0.7,0.2-1.3,0.4-1.8c0.6,0.2,1.2,0.4,2,0.4V8.7z M132.8,8.7h-1.9c0-1.1,0.4-2,1-2.8
			c0.4,0.3,0.8,0.6,1.3,0.8C133,7.3,132.8,7.9,132.8,8.7z M132.8,9.1c0,0.7,0.2,1.4,0.4,2c-0.5,0.2-0.9,0.5-1.3,0.8
			c-0.6-0.8-1-1.7-1-2.8H132.8z M133.2,9.1h2.4v1.4c-0.7,0-1.4,0.2-1.9,0.4C133.4,10.3,133.3,9.7,133.2,9.1z M136,9.1h2.4
			c0,0.7-0.2,1.3-0.4,1.8c-0.6-0.2-1.2-0.4-1.9-0.4L136,9.1L136,9.1L136,9.1z M138.8,9.1h1.9c0,1.1-0.4,2-1,2.8
			c-0.4-0.3-0.8-0.6-1.3-0.8C138.6,10.5,138.7,9.8,138.8,9.1z M138.8,8.7c0-0.7-0.2-1.4-0.4-2c0.5-0.2,0.9-0.5,1.3-0.8
			c0.6,0.8,1,1.7,1,2.8L138.8,8.7L138.8,8.7z M139.4,5.5c-0.3,0.3-0.7,0.5-1.2,0.8c-0.5-1.1-1.2-1.8-1.7-2.3
			C137.6,4.2,138.6,4.7,139.4,5.5z M137.8,6.5c-0.5,0.2-1.1,0.4-1.8,0.4V4.2C136.4,4.6,137.2,5.4,137.8,6.5z M135.6,4.2v2.6
			c-0.7,0-1.3-0.2-1.8-0.4C134.3,5.4,135.1,4.6,135.6,4.2z M135.2,4c-0.3,0.3-0.6,0.6-0.9,1c-0.3,0.3-0.6,0.8-0.8,1.3
			c-0.5-0.2-0.9-0.5-1.2-0.8C133,4.7,134,4.2,135.2,4z M132.2,12.2c0.3-0.3,0.7-0.5,1.2-0.8c0.5,1.1,1.3,1.8,1.8,2.3
			C134,13.6,133,13,132.2,12.2z M133.8,11.3c0.5-0.2,1.1-0.4,1.8-0.4v2.6C135.1,13.1,134.4,12.4,133.8,11.3z M136,13.5v-2.6
			c0.7,0,1.2,0.2,1.8,0.4C137.2,12.4,136.4,13.1,136,13.5z M136.4,13.7c0.5-0.4,1.2-1.2,1.8-2.3c0.5,0.2,0.9,0.5,1.2,0.8
			C138.6,13,137.6,13.6,136.4,13.7z"/>
	</g>
</g>
</svg>
