<?xml version="1.0" encoding="utf-8"?>
<!-- Generator: Adobe Illustrator 25.4.1, SVG Export Plug-In . SVG Version: 6.00 Build 0)  -->
<svg version="1.1" id="Capa_1" xmlns="http://www.w3.org/2000/svg" xmlns:xlink="http://www.w3.org/1999/xlink" x="0px" y="0px"
	 viewBox="0 0 335.3 70.2" style="enable-background:new 0 0 335.3 70.2;" xml:space="preserve">
<style type="text/css">
	.st0{fill:none;}
	.st1{fill:#679E63;}
	.st2{fill-rule:evenodd;clip-rule:evenodd;fill:#FFFFFF;}
	.st3{fill-rule:evenodd;clip-rule:evenodd;fill:#679E63;}
	.st4{fill-rule:evenodd;clip-rule:evenodd;fill:url(#SVGID_1_);}
	.st5{clip-path:url(#SVGID_00000036250771482130240420000010844355819493732771_);}
	.st6{fill:url(#SVGID_00000037673501165532815490000003936658961087065743_);}
	.st7{fill:url(#SVGID_00000139251598945266286790000005251682261360977045_);}
	.st8{fill:url(#SVGID_00000116224922114732826870000005249490256304656280_);}
	.st9{fill:url(#SVGID_00000097459265242361611340000005537515343035237787_);}
	.st10{fill:url(#SVGID_00000098184242245841721430000005098659233911967669_);}
	.st11{fill:url(#SVGID_00000116931398827164281910000016697092829928388536_);}
</style>
<g>
	<rect class="st0" width="335.3" height="70.2"/>
	<path class="st1" d="M167,69.9c-0.4,0-0.7-0.1-1.1-0.3l-3.4-2c-0.5-0.3-0.3-0.4-0.1-0.4c0.5-0.2,1.1-0.4,1.5-0.7c0.1,0,0.2,0,0.3,0
		l2.6,1.6c0.1,0.1,0.2,0.1,0.3,0l10.3-5.9c0.1-0.1,0.2-0.2,0.2-0.3V50c0-0.1-0.1-0.2-0.2-0.3l-10.3-5.9c-0.1-0.1-0.2-0.1-0.3,0
		l-10.3,5.9c-0.1,0.1-0.2,0.2-0.2,0.3v11.8c0,0.1,0.1,0.2,0.2,0.3l2.8,1.6c1.5,0.8,2.5-0.1,2.5-1V51c0-0.2,0.1-0.3,0.3-0.3
		c0,0,0,0,0,0h1.3c0.2,0,0.3,0.1,0.3,0.3c0,0,0,0,0,0v11.7c0,2-1.1,3.2-3,3.2c-0.8,0-1.7-0.2-2.4-0.6l-2.7-1.5
		c-0.7-0.4-1.1-1.1-1.1-1.9V50c0-0.8,0.4-1.5,1.1-1.9l10.3-5.9c0.7-0.4,1.5-0.4,2.2,0l10.3,5.9c0.7,0.4,1.1,1.1,1.1,1.9v11.8
		c0,0.8-0.4,1.5-1.1,1.9l-10.3,5.9C167.7,69.8,167.4,69.9,167,69.9z"/>
	<path class="st1" d="M170.2,61.7c-4.5,0-5.4-2.1-5.4-3.8c0-0.2,0.1-0.3,0.3-0.3c0,0,0,0,0,0h1.3c0.1,0,0.3,0.1,0.3,0.3
		c0.2,1.3,0.8,2,3.5,2c2.2,0,3.1-0.5,3.1-1.6c0-0.7-0.3-1.2-3.6-1.5c-2.8-0.3-4.5-0.9-4.5-3.1c0-2.1,1.7-3.3,4.7-3.3
		c3.3,0,4.9,1.1,5.1,3.6c0,0.2-0.1,0.3-0.3,0.3c0,0,0,0,0,0h-1.3c-0.1,0-0.3-0.1-0.3-0.2c-0.3-1.4-1.1-1.9-3.2-1.9
		c-2.4,0-2.6,0.8-2.6,1.4c0,0.7,0.3,1,3.5,1.4c3.2,0.4,4.6,1,4.6,3.2C175.3,60.5,173.4,61.7,170.2,61.7z"/>
	<path class="st1" d="M184.9,49.3c0,1.1-0.9,2-2,2s-2-0.9-2-2c0-1.1,0.9-2,2-2C184.1,47.4,184.9,48.2,184.9,49.3z M181.3,49.3
		c0,0.9,0.7,1.7,1.7,1.7c0.9,0,1.7-0.7,1.7-1.7c0-0.9-0.7-1.7-1.7-1.7c0,0,0,0,0,0C182.1,47.7,181.3,48.4,181.3,49.3z M182.2,48.2
		h0.8c0.3,0,0.8,0,0.8,0.6c0,0.3-0.2,0.5-0.4,0.5c0.3,0,0.3,0.2,0.4,0.5c0,0.2,0.1,0.4,0.1,0.6h-0.5c0-0.1-0.1-0.7-0.1-0.7
		c0-0.1-0.1-0.2-0.2-0.2h-0.4v0.9h-0.4L182.2,48.2z M182.6,49.2h0.3c0.2,0,0.3-0.1,0.3-0.3c0,0,0,0,0-0.1c0-0.3-0.2-0.3-0.3-0.3
		h-0.4L182.6,49.2z"/>
	<path class="st2" d="M135.2,23.6c0-0.5-0.2-0.9-0.7-1.1l-10.9-6.3c-0.2-0.1-0.4-0.2-0.6-0.2H123c-0.2,0-0.4,0.1-0.6,0.2l-10.9,6.3
		c-0.4,0.2-0.7,0.7-0.7,1.1l0,16.9c0,0.2,0.1,0.5,0.3,0.6c0.2,0.1,0.5,0.1,0.7,0l6.5-3.7c0.4-0.2,0.7-0.7,0.7-1.1v-7.9
		c0-0.5,0.2-0.9,0.7-1.1l2.8-1.6c0.2-0.1,0.4-0.2,0.7-0.2c0.2,0,0.5,0.1,0.7,0.2l2.8,1.6c0.4,0.2,0.7,0.7,0.7,1.1v7.9
		c0,0.5,0.3,0.9,0.7,1.1l6.5,3.7c0.2,0.1,0.5,0.1,0.7,0c0.2-0.1,0.3-0.3,0.3-0.6L135.2,23.6z"/>
	<path class="st2" d="M187.5,0.4c-0.3-0.2-0.7-0.1-0.9,0.3c-0.1,0.1-0.1,0.2-0.1,0.3v16.7c0,0.3-0.2,0.5-0.5,0.5
		c-0.1,0-0.2,0-0.2-0.1l-2.7-1.6c-0.4-0.2-0.9-0.2-1.3,0L171,22.8c-0.4,0.2-0.7,0.7-0.7,1.1v12.6c0,0.5,0.3,0.9,0.7,1.1l10.9,6.3
		c0.4,0.2,0.9,0.2,1.3,0l10.9-6.3c0.4-0.2,0.7-0.7,0.7-1.1V5.2c0-0.5-0.3-0.9-0.7-1.1L187.5,0.4z M186.5,32.4c0,0.1-0.1,0.2-0.2,0.3
		l-3.7,2.2c-0.1,0.1-0.2,0.1-0.3,0l-3.7-2.2c-0.1-0.1-0.2-0.2-0.2-0.3V28c0-0.1,0.1-0.2,0.2-0.3l3.7-2.2c0.1-0.1,0.2-0.1,0.3,0
		l3.7,2.2c0.1,0.1,0.2,0.2,0.2,0.3L186.5,32.4z"/>
	<path class="st2" d="M223.8,27.9c0.4-0.2,0.7-0.7,0.7-1.1v-3c0-0.5-0.2-0.9-0.7-1.1L213,16.3c-0.4-0.2-0.9-0.2-1.3,0l-10.9,6.3
		c-0.4,0.2-0.7,0.7-0.7,1.1v12.6c0,0.5,0.3,0.9,0.7,1.1l10.8,6.2c0.4,0.2,0.9,0.2,1.3,0l6.5-3.6c0.3-0.2,0.4-0.6,0.3-0.9
		c-0.1-0.1-0.1-0.2-0.2-0.3l-10.9-6.3c-0.2-0.1-0.3-0.3-0.3-0.6v-3.9c0-0.2,0.1-0.5,0.3-0.6l3.4-2c0.2-0.1,0.5-0.1,0.7,0l3.4,2
		c0.2,0.1,0.3,0.3,0.3,0.6v3.1c0,0.4,0.3,0.7,0.7,0.7c0.1,0,0.2,0,0.3-0.1L223.8,27.9z"/>
	<path class="st3" d="M212.1,27.3c0.1,0,0.2,0,0.3,0l2.1,1.2c0.1,0,0.1,0.1,0.1,0.2v2.4c0,0.1,0,0.2-0.1,0.2l-2.1,1.2
		c-0.1,0-0.2,0-0.3,0l-2.1-1.2c-0.1,0-0.1-0.1-0.1-0.2v-2.4c0-0.1,0-0.2,0.1-0.2L212.1,27.3z"/>
	
		<linearGradient id="SVGID_1_" gradientUnits="userSpaceOnUse" x1="157.1646" y1="50.9431" x2="147.3914" y2="31.0057" gradientTransform="matrix(1 0 0 -1 0 72)">
		<stop  offset="0" style="stop-color:#3F873F"/>
		<stop  offset="0.3296" style="stop-color:#3F8B3D"/>
		<stop  offset="0.6368" style="stop-color:#3E9637"/>
		<stop  offset="0.9342" style="stop-color:#3DA92E"/>
		<stop  offset="1" style="stop-color:#3DAE2B"/>
	</linearGradient>
	<path class="st4" d="M153.4,16.4c-0.4-0.2-0.9-0.2-1.3,0l-10.8,6.2c-0.4,0.2-0.7,0.7-0.7,1.1v12.5c0,0.5,0.2,0.9,0.7,1.1l10.8,6.2
		c0.4,0.2,0.9,0.2,1.3,0l10.8-6.2c0.4-0.2,0.7-0.7,0.7-1.1V23.8c0-0.5-0.2-0.9-0.7-1.1L153.4,16.4z"/>
	<g>
		<defs>
			<path id="SVGID_00000094583403781536422740000006296992793023597756_" d="M153.4,16.4c-0.4-0.2-0.9-0.2-1.3,0l-10.8,6.2
				c-0.4,0.2-0.7,0.7-0.7,1.1v12.5c0,0.5,0.2,0.9,0.7,1.1l10.8,6.2c0.4,0.2,0.9,0.2,1.3,0l10.8-6.2c0.4-0.2,0.7-0.7,0.7-1.1V23.8
				c0-0.5-0.2-0.9-0.7-1.1L153.4,16.4z"/>
		</defs>
		<clipPath id="SVGID_00000064351138562418793380000012468515523660520085_">
			<use xlink:href="#SVGID_00000094583403781536422740000006296992793023597756_"  style="overflow:visible;"/>
		</clipPath>
		<g style="clip-path:url(#SVGID_00000064351138562418793380000012468515523660520085_);">
			<path class="st0" d="M152.1,16.4l-10.8,6.2c-0.4,0.2-0.7,0.7-0.7,1.1v12.5c0,0.3,0.1,0.6,0.3,0.8l12.2-20.8
				C152.7,16.2,152.4,16.2,152.1,16.4z"/>
			<path class="st0" d="M153.1,43.8c0.1,0,0.2-0.1,0.3-0.1l10.8-6.2c0.4-0.2,0.7-0.7,0.7-1.1V23.8c0-0.3-0.1-0.7-0.4-0.9L153.1,43.8
				z"/>
			
				<linearGradient id="SVGID_00000023278756215739379660000006008026651222059425_" gradientUnits="userSpaceOnUse" x1="151.1197" y1="40.509" x2="178.5426" y2="60.7705" gradientTransform="matrix(1 0 0 -1 0 72)">
				<stop  offset="0.1376" style="stop-color:#3F873F"/>
				<stop  offset="0.3974" style="stop-color:#529F44"/>
				<stop  offset="0.7113" style="stop-color:#63B649"/>
				<stop  offset="0.9081" style="stop-color:#6ABF4B"/>
			</linearGradient>
			<path style="fill:url(#SVGID_00000023278756215739379660000006008026651222059425_);" d="M164.3,22.7l-10.8-6.2
				c-0.1-0.1-0.2-0.1-0.3-0.1l-12.2,20.8c0.1,0.1,0.2,0.2,0.4,0.3l10.9,6.2c0.3,0.2,0.7,0.2,1,0.1l11.4-20.9
				C164.5,22.8,164.4,22.7,164.3,22.7z"/>
			<path class="st0" d="M164.9,36.3V23.8c0-0.5-0.3-0.9-0.7-1.1l-10.8-6.2c-0.1-0.1-0.3-0.1-0.4-0.1l11.9,20.3
				C164.9,36.5,164.9,36.4,164.9,36.3z"/>
			<path class="st0" d="M141.3,22.7c-0.4,0.2-0.7,0.7-0.7,1.1v12.5c0,0.5,0.3,0.9,0.7,1.1l10.9,6.2c0.3,0.1,0.5,0.2,0.8,0.2
				L141.3,22.7L141.3,22.7z"/>
			
				<linearGradient id="SVGID_00000062167817512357773520000008824151770860237463_" gradientUnits="userSpaceOnUse" x1="140.2603" y1="57.8445" x2="165.2722" y2="57.8445" gradientTransform="matrix(1 0 0 -1 0 72)">
				<stop  offset="9.192000e-02" style="stop-color:#6ABF4B"/>
				<stop  offset="0.2887" style="stop-color:#63B649"/>
				<stop  offset="0.6026" style="stop-color:#529F44"/>
				<stop  offset="0.8624" style="stop-color:#3F873F"/>
			</linearGradient>
			<polygon style="fill:url(#SVGID_00000062167817512357773520000008824151770860237463_);" points="151.8,14.1 151.6,14.2 
				151.8,14.2 			"/>
			
				<linearGradient id="SVGID_00000157992425788284147270000008877414306692142224_" gradientUnits="userSpaceOnUse" x1="140.2603" y1="41.9732" x2="165.2722" y2="41.9732" gradientTransform="matrix(1 0 0 -1 0 72)">
				<stop  offset="9.192000e-02" style="stop-color:#6ABF4B"/>
				<stop  offset="0.2887" style="stop-color:#63B649"/>
				<stop  offset="0.6026" style="stop-color:#529F44"/>
				<stop  offset="0.8624" style="stop-color:#3F873F"/>
			</linearGradient>
			<path style="fill:url(#SVGID_00000157992425788284147270000008877414306692142224_);" d="M164.3,37.4c0.3-0.2,0.5-0.5,0.6-0.8
				L153,16.3c-0.3-0.1-0.6,0-0.9,0.1l-10.8,6.2L153,43.8c0.2,0,0.3-0.1,0.5-0.2L164.3,37.4z"/>
			
				<linearGradient id="SVGID_00000047059286862733288150000004934086589209661604_" gradientUnits="userSpaceOnUse" x1="140.2603" y1="34.833" x2="165.2722" y2="34.833" gradientTransform="matrix(1 0 0 -1 0 72)">
				<stop  offset="9.192000e-02" style="stop-color:#6ABF4B"/>
				<stop  offset="0.2887" style="stop-color:#63B649"/>
				<stop  offset="0.6026" style="stop-color:#529F44"/>
				<stop  offset="0.8624" style="stop-color:#3F873F"/>
			</linearGradient>
			<polygon style="fill:url(#SVGID_00000047059286862733288150000004934086589209661604_);" points="165.3,37.2 165.2,37.1 
				165.2,37.2 			"/>
			
				<linearGradient id="SVGID_00000114756924073113752300000004665692960920603537_" gradientUnits="userSpaceOnUse" x1="140.2603" y1="31.6053" x2="165.2722" y2="31.6053" gradientTransform="matrix(1 0 0 -1 0 72)">
				<stop  offset="9.192000e-02" style="stop-color:#6ABF4B"/>
				<stop  offset="0.2887" style="stop-color:#63B649"/>
				<stop  offset="0.6026" style="stop-color:#529F44"/>
				<stop  offset="0.8624" style="stop-color:#3F873F"/>
			</linearGradient>
			<path style="fill:url(#SVGID_00000114756924073113752300000004665692960920603537_);" d="M164.3,37.4l-10.8,6.2
				c-0.1,0.1-0.3,0.1-0.5,0.2l0.2,0.4l12-7v-0.2l-0.3-0.5C164.8,36.9,164.6,37.2,164.3,37.4z"/>
			
				<linearGradient id="SVGID_00000168813661837681216450000011582048129738950323_" gradientUnits="userSpaceOnUse" x1="168.9162" y1="51.5341" x2="153.4904" y2="20.0656" gradientTransform="matrix(1 0 0 -1 0 72)">
				<stop  offset="0" style="stop-color:#3F873F"/>
				<stop  offset="0.3296" style="stop-color:#3F8B3D"/>
				<stop  offset="0.6368" style="stop-color:#3E9637"/>
				<stop  offset="0.9342" style="stop-color:#3DA92E"/>
				<stop  offset="1" style="stop-color:#3DAE2B"/>
			</linearGradient>
			<path style="fill:url(#SVGID_00000168813661837681216450000011582048129738950323_);" d="M164.3,37.4l-10.8,6.2
				c-0.1,0.1-0.3,0.1-0.5,0.2l0.2,0.4l12-7v-0.2l-0.3-0.5C164.8,36.9,164.6,37.2,164.3,37.4z"/>
		</g>
	</g>
</g>
</svg>
