<?xml version="1.0" encoding="utf-8"?>
<!-- Generator: Adobe Illustrator 25.4.1, SVG Export Plug-In . SVG Version: 6.00 Build 0)  -->
<svg version="1.1" id="Capa_1" xmlns:serif="http://www.serif.com/"
	 xmlns="http://www.w3.org/2000/svg" xmlns:xlink="http://www.w3.org/1999/xlink" x="0px" y="0px" viewBox="0 0 1000 287.4"
	 style="enable-background:new 0 0 1000 287.4;" xml:space="preserve">
<style type="text/css">
	.st0{fill:#FFFFFF;}
	.st1{fill-rule:evenodd;clip-rule:evenodd;fill:#FFFFFF;}
</style>
<path class="st0" d="M456.2,52.2l-19.3,11.5c-3.6-6.3-7.1-10.4-10.3-12.3c-3.4-2.2-7.8-3.3-13.2-3.3c-6.6,0-12.1,1.9-16.5,5.6
	c-4.4,3.7-6.5,8.3-6.5,13.9c0,7.7,5.7,13.9,17.2,18.7l15.8,6.5c12.8,5.2,22.2,11.5,28.1,19c5.9,7.5,8.9,16.7,8.9,27.5
	c0,14.6-4.8,26.6-14.5,36.1c-9.8,9.6-21.9,14.4-36.3,14.4c-13.7,0-25-4.1-34-12.3c-8.8-8.2-14.3-19.6-16.5-34.4l24.1-5.3
	c1.1,9.3,3,15.7,5.7,19.3c4.9,6.8,12.1,10.2,21.5,10.2c7.4,0,13.6-2.5,18.5-7.5c4.9-5,7.4-11.3,7.4-18.9c0-3.1-0.4-5.9-1.3-8.4
	c-0.9-2.6-2.2-4.9-4-7.1c-1.8-2.2-4.1-4.2-7-6c-2.9-1.9-6.3-3.7-10.2-5.4l-15.2-6.3C376.8,98.5,366,85.1,366,67.5
	c0-11.9,4.5-21.8,13.6-29.8c9.1-8.1,20.4-12.1,33.9-12.1C431.7,25.6,445.9,34.5,456.2,52.2"/>
<path class="st0" d="M499.9,107.4c0,17.5,5.9,31.8,17.6,43.1c11.7,11.3,25.1,16.9,40.4,16.9c16.6,0,30.6-5.7,41.9-17.2
	c11.4-11.6,17.1-25.7,17.1-42.4c0-16.9-5.6-31-16.9-42.4c-11.2-11.5-25-17.2-41.5-17.2c-16.4,0-30.3,5.7-41.6,17.2
	C505.6,76.7,499.9,90.7,499.9,107.4 M475.9,107.1c0-22.3,8.1-41.4,24.4-57.4c16.2-16,35.7-24,58.5-24c22.5,0,41.8,8.1,57.9,24.2
	C632.9,66.1,641,85.4,641,108c0,22.8-8.1,42.1-24.3,57.9c-16.3,15.9-36,23.9-59,23.9c-20.4,0-38.7-7.1-54.9-21.2
	C484.8,153,475.9,132.5,475.9,107.1"/>
<path class="st0" d="M660.2,186.9l33.2-170.1l54.2,123l56.2-123l29.9,170.1h-24.4L794,91.4l-46.8,102.8L701.8,91.3l-17,95.6
	L660.2,186.9L660.2,186.9z"/>
<path class="st0" d="M945,126.1l-23.4-53.8L897,126.1H945z M954.7,148.5h-67.6l-17.6,38.4h-25.7L922,18.8l75.4,168.2h-26.1
	L954.7,148.5L954.7,148.5z"/>
<path class="st0" d="M363.2,260.4l9.1-46.2l14.8,33.4l15.3-33.4l8.1,46.2h-6.7l-4.2-25.9l-12.7,27.9l-12.4-27.9l-4.6,25.9H363.2
	L363.2,260.4z"/>
<path class="st0" d="M443.4,223.6h-17.3v10.3h16.8v6.1h-16.8v14.3h17.3v6.1h-23.8v-42.9h23.8V223.6z"/>
<path class="st0" d="M458.4,254.3h2.9c2.9,0,5.3-0.3,7.3-0.9c1.9-0.6,3.7-1.7,5.2-3.1c3.2-2.9,4.8-6.7,4.8-11.4
	c0-4.7-1.6-8.5-4.7-11.5c-2.8-2.6-7-3.9-12.6-3.9h-2.9L458.4,254.3L458.4,254.3z M451.9,260.4v-42.9h9c4.3,0,7.8,0.4,10.3,1.3
	c2.7,0.8,5.1,2.3,7.3,4.3c4.4,4,6.7,9.4,6.7,15.9c0,6.6-2.3,11.9-6.9,16c-2.3,2-4.8,3.5-7.3,4.3c-2.4,0.8-5.8,1.2-10.1,1.2
	L451.9,260.4L451.9,260.4z"/>
<rect x="493.4" y="217.5" class="st1" width="6.5" height="42.9"/>
<path class="st0" d="M542.1,219.8v7.7c-3.8-3.1-7.6-4.7-11.7-4.7c-4.4,0-8.2,1.6-11.2,4.8c-3.1,3.2-4.6,7-4.6,11.6
	c0,4.5,1.5,8.3,4.6,11.4c3.1,3.1,6.8,4.6,11.2,4.6c2.3,0,4.2-0.4,5.8-1.1c0.9-0.4,1.8-0.9,2.8-1.5c1-0.6,2-1.4,3-2.3v7.8
	c-3.7,2.1-7.6,3.2-11.7,3.2c-6.2,0-11.4-2.1-15.8-6.4c-4.3-4.3-6.5-9.5-6.5-15.6c0-5.5,1.8-10.3,5.4-14.6c4.5-5.2,10.2-7.9,17.3-7.9
	C534.7,216.7,538.5,217.7,542.1,219.8"/>
<path class="st0" d="M574,243.9l-6.4-14.6l-6.7,14.6H574L574,243.9z M576.6,250h-18.4l-4.8,10.4h-7l21.3-45.6l20.6,45.6h-7.1
	L576.6,250L576.6,250z"/>
<path class="st0" d="M600.1,217.5v36.8h12.7v6.1h-19.2v-42.9H600.1z"/>
<path class="st0" d="M686.1,219.8v7.7c-3.8-3.1-7.6-4.7-11.7-4.7c-4.4,0-8.2,1.6-11.2,4.8c-3,3.2-4.6,7-4.6,11.6
	c0,4.5,1.5,8.3,4.6,11.4c3.1,3.1,6.8,4.6,11.2,4.6c2.3,0,4.2-0.4,5.8-1.1c0.9-0.4,1.8-0.9,2.8-1.5c1-0.6,2-1.4,3-2.3v7.8
	c-3.7,2.1-7.6,3.2-11.7,3.2c-6.2,0-11.4-2.1-15.8-6.4c-4.3-4.3-6.5-9.5-6.5-15.6c0-5.5,1.8-10.3,5.4-14.6c4.5-5.2,10.2-7.9,17.3-7.9
	C678.7,216.7,682.5,217.7,686.1,219.8"/>
<path class="st0" d="M718.1,223.6h-17.3v10.3h16.8v6.1h-16.8v14.3h17.3v6.1h-23.8v-42.9h23.8V223.6z"/>
<path class="st0" d="M726.6,260.4v-45.9l31.4,32.8v-29.8h6.5v45.6l-31.4-32.7v30.1H726.6z"/>
<path class="st0" d="M786.7,223.6v36.8h-6.5v-36.8h-9.9v-6.1h26.3v6.1H786.7L786.7,223.6z"/>
<path class="st0" d="M826.2,223.6h-17.3v10.3h16.8v6.1h-16.8v14.3h17.3v6.1h-23.8v-42.9h23.8V223.6z"/>
<path class="st0" d="M841.2,237.2h2.1c6.2,0,9.2-2.3,9.2-7c0-4.4-3-6.6-9-6.6h-2.3V237.2z M849.3,242.1l13.3,18.3h-8l-12.3-17.6
	h-1.2v17.6h-6.5v-42.9h7.6c5.7,0,9.8,1.1,12.3,3.2c2.8,2.4,4.2,5.5,4.2,9.4c0,3-0.9,5.7-2.6,7.8
	C854.5,240.1,852.2,241.5,849.3,242.1"/>
<path class="st0" d="M871.8,252.4l5.6,2.2l-7.9,15.9l-4.2-1.8L871.8,252.4L871.8,252.4z"/>
<path class="st0" d="M910.9,237h2.4c6,0,9-2.3,9-6.9c0-4.4-3.1-6.6-9.2-6.6h-2.1V237z M910.9,243v17.4h-6.5v-42.9h7.4
	c3.6,0,6.3,0.2,8.2,0.8c1.9,0.5,3.5,1.4,4.9,2.8c2.5,2.4,3.7,5.4,3.7,9.1c0,3.9-1.3,7-4,9.3c-2.6,2.3-6.2,3.4-10.7,3.4L910.9,243
	L910.9,243z"/>
<path class="st0" d="M930.2,257.3c0-1,0.4-1.9,1.1-2.7c0.8-0.8,1.7-1.1,2.7-1.1c1.1,0,2,0.4,2.7,1.1c0.8,0.8,1.1,1.7,1.1,2.7
	c0,1.1-0.4,2-1.1,2.8c-0.7,0.7-1.7,1.1-2.7,1.1c-1.1,0-2-0.4-2.8-1.1C930.5,259.4,930.2,258.4,930.2,257.3"/>
<path class="st0" d="M970.7,243.9l-6.4-14.6l-6.7,14.6H970.7z M973.3,250h-18.4l-4.8,10.4h-7l21.3-45.6l20.6,45.6h-7.1L973.3,250
	L973.3,250z"/>
<path class="st0" d="M992.2,257.3c0-1,0.4-1.9,1.1-2.7c0.8-0.8,1.7-1.1,2.7-1.1c1.1,0,2,0.4,2.7,1.1c0.8,0.8,1.1,1.7,1.1,2.7
	c0,1.1-0.4,2-1.1,2.8c-0.7,0.7-1.7,1.1-2.7,1.1c-1.1,0-2-0.4-2.8-1.1C992.6,259.4,992.2,258.4,992.2,257.3"/>
<path class="st0" d="M144,12.7c-72.5,0-131.4,58.7-131.4,131c0,72.2,58.9,131,131.4,131c72.4,0,131.4-58.7,131.4-131
	C275.4,71.4,216.5,12.7,144,12.7 M144,287.2c-79.4,0-144-64.4-144-143.6C0,64.5,64.6,0.1,144,0.1c79.4,0,144,64.4,144,143.6
	C288.1,222.8,223.5,287.2,144,287.2"/>
<path class="st0" d="M171.7,196.5h-3.7V249c0,3.6-1.6,6.7-4.2,8.8c3.1-0.5,6.2-1.2,9.3-1.9c-0.9-1.6-1.4-3.4-1.4-5.4V196.5
	L171.7,196.5z"/>
<path class="st0" d="M122.8,249.3V188h-2.7v59.1c0,3.6-1.1,6.8-3,9.2c3.3,0.8,6.7,1.4,10.1,1.9C124.5,256.1,122.8,253,122.8,249.3"
	/>
<path class="st0" d="M262,141.8c0-65-52.8-117.6-118-117.6c-65.2,0-118,52.7-118,117.6C26,190.3,55.5,232,97.6,250
	c-0.2-0.9-0.3-1.9-0.3-2.9v-80.2c-1.4,3.8-4.6,6.6-8.5,6.6c-5.1,0-9.2-4.7-9.2-10.5V98.8c0-5.8,4.1-10.5,9.2-10.5l24,0.1
	C103.9,86,97.2,77.8,97.2,68c0-11.7,9.5-21.1,21.2-21.1c11.7,0,21.2,9.5,21.2,21.1c0,9.8-6.7,18-15.8,20.4l41.3,0.1
	c-3-0.7-5.8-2-8.2-3.8c-5.9-0.7-10.3-3.4-12.6-5.3c-1.3-1.1-2-1.8-2-1.8c0.5-0.4,1.2-1.7,2-3.4c1.6-3.3,3.5-7.9,4.3-9.8
	c0.3-1.4,0.7-2.7,1.2-4c3-8,10.7-13.6,19.8-13.6c7.6,0,14.2,4,18,10c1.6,2.1,2.7,4.5,3.2,7.1c1.2,3.1,4.7,11.8,6,13.1
	c0,0-4.9,5.7-13.4,7c-2.6,2.2-5.8,3.9-9.3,4.6l21.4,0c1,0,2.1,0,3.2,0h0v0c3,0.8,5.7,3.6,6.8,7.4l15.6,57.6
	c1.4,5.2-0.8,10.3-4.9,11.4c-3.6,1-7.5-1.5-9.3-5.6v0c-1,14.5,6,31.5,6,31.5c2.7,5.3,0.2,5.5,0.2,5.5h-22.7V250
	C232.5,232.1,262,190.4,262,141.8"/>
<path class="st0" d="M192.4,149.6c2.3-1.3,3-4.2,1.7-6.5c-1.3-2.4-4.2-3.3-6.5-2l-36,19.9c-0.7,0.2-1.4,0.4-2,0.8h-9.2
	c0,0-0.1-0.1-0.1-0.1l-36-20.4c-2.3-1.3-5.2-0.4-6.5,1.9c-1.3,2.3-0.6,5.3,1.7,6.6l31.8,18v90.9c4.2,0.4,8.4,0.7,12.7,0.7v-57.8h2.8
	v57.7c4.3-0.1,8.5-0.4,12.7-1v-90.5L192.4,149.6L192.4,149.6z"/>
<path class="st0" d="M144.5,125.1c-9.1,0-16.5,7.4-16.5,16.5c0,9.1,7.4,16.5,16.5,16.5c9.1,0,16.5-7.4,16.5-16.5
	C161.1,132.4,153.7,125.1,144.5,125.1"/>
</svg>
