<?xml version="1.0" encoding="utf-8"?>
<!-- Generator: Adobe Illustrator 25.4.1, SVG Export Plug-In . SVG Version: 6.00 Build 0)  -->
<svg version="1.1" id="Capa_1" xmlns="http://www.w3.org/2000/svg" xmlns:xlink="http://www.w3.org/1999/xlink" x="0px" y="0px"
	 viewBox="0 0 150 30" style="enable-background:new 0 0 150 30;" xml:space="preserve">
<style type="text/css">
	.st0{fill-rule:evenodd;clip-rule:evenodd;fill:#F7DF1E;}
	.st1{fill-rule:evenodd;clip-rule:evenodd;fill:#323232;}
	.st2{fill:#FFFFFF;}
</style>
<symbol  id="A" viewBox="-40 -40 80 80">
	<g>
		<path class="st0" d="M-40-40h80v80h-80V-40z"/>
		<path class="st1" d="M-4,23V-3h7v26c0,10-14,16-22,4l6-4C-10,29-4,27-4,23z M26,6c-4-5.5-9-3-9,0.5C17,12,33.5,11,33.5,23
			c-0.5,14-20,13.5-26,3l6-3.5C18,29.5,26,27,26,23c-0.5-7-16-3.5-16-16.5C9.5-3.5,24.5-9,31.5,2.5L26,6"/>
	</g>
</symbol>
<g>
	<path class="st2" d="M88.1,11.1c-0.3-0.2-0.6-0.4-1-0.5c-0.4-0.1-0.8-0.2-1.3-0.2c-0.5,0-1,0.1-1.4,0.2c-0.5,0.1-0.9,0.3-1.2,0.5
		l-0.2,0.1l0.7,1.5l0.3-0.1c0.3-0.2,0.6-0.3,0.9-0.4c0.3-0.1,0.6-0.2,1-0.2c0.2,0,0.4,0,0.6,0.1c0.1,0,0.3,0.1,0.4,0.2
		c0.1,0.1,0.2,0.2,0.2,0.4c0.1,0.2,0.1,0.4,0.1,0.7v0.2l-1,0c-1.2,0-2.1,0.3-2.7,0.7c-0.6,0.5-0.9,1.2-0.9,2c0,0.4,0.1,0.8,0.2,1.1
		c0.1,0.3,0.3,0.6,0.5,0.8c0.2,0.2,0.5,0.4,0.8,0.5c0.3,0.1,0.6,0.2,1,0.2c0.3,0,0.6,0,0.9-0.1c0.3-0.1,0.5-0.1,0.7-0.3
		c0.2-0.1,0.4-0.3,0.6-0.4c0.1-0.1,0.1-0.1,0.2-0.2l0.2,0.8h1.5v-5.7c0-0.5-0.1-0.9-0.2-1.3C88.6,11.6,88.3,11.3,88.1,11.1z
		 M84.5,17.2c-0.2-0.1-0.2-0.4-0.2-0.7c0-0.2,0-0.4,0.1-0.5c0.1-0.1,0.2-0.3,0.3-0.4c0.1-0.1,0.3-0.2,0.6-0.3c0.3-0.1,0.6-0.1,1-0.1
		l0.7,0v0.4c0,0.3,0,0.6-0.1,0.9c-0.1,0.2-0.2,0.4-0.4,0.6c-0.2,0.2-0.3,0.3-0.5,0.3c-0.2,0.1-0.5,0.1-0.7,0.1v0.3c0,0,0,0,0,0l0,0
		c0,0,0,0,0,0v-0.3C85,17.4,84.7,17.4,84.5,17.2z"/>
	<path class="st2" d="M73.5,11.1c-0.3-0.2-0.6-0.4-1-0.5c-0.4-0.1-0.8-0.2-1.4-0.2c-0.5,0-1,0.1-1.4,0.2c-0.5,0.1-0.9,0.3-1.2,0.5
		l-0.2,0.1l0.7,1.5l0.3-0.1c0.3-0.2,0.6-0.3,0.9-0.4c0.3-0.1,0.6-0.2,1-0.2c0.2,0,0.4,0,0.6,0.1c0.1,0,0.3,0.1,0.4,0.2
		c0.1,0.1,0.2,0.2,0.2,0.4c0.1,0.2,0.1,0.4,0.1,0.7v0.2l-1,0c-1.2,0-2.1,0.3-2.7,0.7c-0.6,0.5-0.9,1.2-0.9,2c0,0.4,0.1,0.8,0.2,1.1
		c0.1,0.3,0.3,0.6,0.5,0.8c0.2,0.2,0.5,0.4,0.8,0.5c0.3,0.1,0.6,0.2,1,0.2c0.3,0,0.6,0,0.9-0.1c0.3-0.1,0.5-0.1,0.7-0.3
		c0.2-0.1,0.4-0.3,0.6-0.4c0.1-0.1,0.1-0.1,0.2-0.2l0.2,0.8h1.5v-5.7c0-0.5-0.1-0.9-0.2-1.3C74,11.6,73.8,11.3,73.5,11.1z M70,17.2
		c-0.2-0.1-0.2-0.4-0.2-0.7c0-0.2,0-0.4,0.1-0.5c0.1-0.1,0.2-0.3,0.3-0.4c0.1-0.1,0.3-0.2,0.6-0.3c0.3-0.1,0.6-0.1,1-0.1l0.7,0v0.4
		c0,0.3,0,0.6-0.1,0.9c-0.1,0.2-0.2,0.4-0.4,0.6c-0.2,0.2-0.3,0.3-0.5,0.3c-0.2,0.1-0.5,0.1-0.7,0.1v0.3l0,0v-0.3
		C70.4,17.4,70.1,17.4,70,17.2z"/>
	<polygon class="st2" points="80.5,10.5 79,15.1 78.6,16.7 78.3,15.7 76.6,10.5 74.7,10.5 77.5,18.9 79.6,18.9 82.5,10.5 	"/>
	<path class="st2" d="M64.5,18.6c0,0.3,0,0.5-0.1,0.7c-0.1,0.2-0.2,0.3-0.3,0.4c-0.1,0.1-0.2,0.2-0.4,0.2c-0.1,0-0.3,0.1-0.5,0.1
		c-0.2,0-0.4,0-0.6,0c-0.2,0-0.3-0.1-0.5-0.1l-0.4-0.1v1.7l0.2,0.1c0.2,0.1,0.3,0.1,0.5,0.1c0.2,0,0.4,0.1,0.6,0.1v0
		c0,0,0.1,0,0.1,0c0.5,0,0.9-0.1,1.2-0.2c0.4-0.1,0.7-0.3,1-0.6c0.3-0.3,0.5-0.6,0.7-1c0.2-0.4,0.2-0.9,0.2-1.4V7.9h-1.9V18.6z"/>
	<path class="st2" d="M108.9,10.4l-0.5,0v0c-0.3,0-0.6,0.1-0.8,0.2c-0.2,0.1-0.5,0.2-0.6,0.4c-0.2,0.2-0.3,0.3-0.5,0.5l-0.1-0.9
		h-1.6v8.4h1.9v-4.5c0-0.4,0-0.7,0.1-1c0.1-0.3,0.2-0.5,0.4-0.7c0.2-0.2,0.3-0.3,0.5-0.4c0.3-0.1,0.6-0.2,1-0.1l0.7,0.1l0.3-1.8
		l-0.3-0.1C109.3,10.4,109.1,10.4,108.9,10.4z"/>
	<path class="st2" d="M101.5,12.1c0.1,0,0.2,0,0.4,0c0.1,0,0.3,0,0.4,0.1c0.1,0,0.3,0.1,0.4,0.1c0.1,0,0.2,0.1,0.3,0.1l0.3,0.1
		l0.6-1.6l-0.2-0.1c-0.3-0.1-0.6-0.2-1-0.3c-0.4-0.1-0.8-0.1-1.1-0.1c-0.5,0-1,0.1-1.5,0.2c-0.5,0.2-0.9,0.4-1.2,0.8
		c-0.3,0.4-0.6,0.8-0.8,1.4c-0.2,0.5-0.3,1.2-0.3,2c0,0.7,0.1,1.4,0.3,1.9c0.2,0.5,0.4,1,0.8,1.4c0.3,0.4,0.7,0.6,1.2,0.8
		c0.4,0.2,0.9,0.2,1.4,0.2v0c0.5,0,0.9,0,1.2-0.1c0.3-0.1,0.6-0.2,0.9-0.3l0.2-0.1v-1.8l-0.4,0.2c-0.2,0.1-0.5,0.2-0.8,0.3
		c-0.3,0.1-0.6,0.1-1,0.1c-0.6,0-1.1-0.2-1.3-0.6c-0.3-0.4-0.5-1.1-0.5-2c0-0.9,0.2-1.6,0.5-2.1C100.4,12.3,100.8,12.1,101.5,12.1z"
		/>
	<path class="st2" d="M96.1,13.8c-0.2-0.2-0.5-0.5-0.9-0.7c-0.3-0.2-0.7-0.4-1.2-0.5c-0.3-0.1-0.7-0.3-1-0.4
		c-0.2-0.1-0.4-0.3-0.6-0.4c-0.1-0.1-0.2-0.3-0.3-0.4c-0.1-0.2-0.1-0.4-0.1-0.6c0-0.4,0.1-0.6,0.4-0.9c0.3-0.2,0.7-0.3,1.2-0.3
		c0.4,0,0.8,0,1.1,0.1c0.4,0.1,0.7,0.2,1,0.3l0.3,0.1l0.7-1.6l-0.3-0.1c-0.4-0.2-0.8-0.3-1.3-0.4c-0.5-0.1-1-0.2-1.6-0.2
		c-0.5,0-0.9,0.1-1.4,0.2c-0.4,0.1-0.8,0.3-1.1,0.6c-0.3,0.2-0.6,0.6-0.7,0.9c-0.2,0.4-0.3,0.8-0.3,1.2c0,0.4,0.1,0.8,0.2,1.2
		c0.1,0.3,0.3,0.7,0.5,0.9c0.2,0.3,0.5,0.5,0.8,0.7c0.3,0.2,0.7,0.4,1.2,0.6c0.5,0.2,0.8,0.3,1.1,0.5c0.3,0.1,0.5,0.3,0.6,0.4
		c0.1,0.1,0.2,0.3,0.3,0.4c0.1,0.2,0.1,0.3,0.1,0.6c0,0.4-0.1,0.8-0.4,1c-0.3,0.2-0.8,0.4-1.5,0.4c-0.2,0-0.5,0-0.7,0l-0.7-0.1
		L91.1,17l-1-0.4v1.9l0.2,0.1c0.3,0.2,0.7,0.3,1.2,0.4c0.5,0.1,1,0.1,1.5,0.1c0.6,0,1.1-0.1,1.6-0.2c0.5-0.1,0.9-0.4,1.2-0.6
		c0.3-0.3,0.6-0.6,0.8-1c0.2-0.4,0.3-0.9,0.3-1.4h0c0-0.4-0.1-0.8-0.2-1.2C96.6,14.3,96.4,14,96.1,13.8z"/>
	<path class="st2" d="M112.2,7.9c-0.1-0.1-0.2-0.2-0.3-0.2c-0.3-0.1-0.7-0.1-1,0.1l-0.1,0.1c-0.1,0.1-0.3,0.4-0.3,0.8
		c0,0.4,0.1,0.6,0.3,0.8c0.2,0.2,0.5,0.3,0.7,0.3c0.3,0,0.5-0.1,0.7-0.3c0.2-0.2,0.3-0.5,0.3-0.8c0-0.2,0-0.3-0.1-0.5
		C112.4,8.1,112.3,7.9,112.2,7.9z"/>
	<rect x="110.5" y="10.5" class="st2" width="1.9" height="8.4"/>
	<path class="st2" d="M126.4,17.3l-0.8,0.1c-0.1,0-0.2,0-0.2,0v0.3c0,0,0,0,0,0l0,0c0,0,0,0,0,0v-0.3c-0.3,0-0.4-0.1-0.5-0.2
		c-0.1-0.1-0.2-0.4-0.2-0.9v-4.2h2v-1.6h-2V8.7h-1.2l-0.6,1.7l-1.2,0.6v1h1.1v4.2c0,0.5,0.1,0.9,0.2,1.3c0.1,0.4,0.3,0.6,0.5,0.9
		c0.2,0.2,0.5,0.4,0.8,0.5c0.3,0.1,0.6,0.1,0.9,0.1c0.1,0,0.3,0,0.4,0c0.1,0,0.3,0,0.4-0.1c0.1,0,0.2,0,0.3-0.1
		c0.1,0,0.2-0.1,0.3-0.1l0.2-0.1v-1.5L126.4,17.3z"/>
	<path class="st2" d="M120.5,11.5c-0.3-0.4-0.6-0.7-1-0.9c-0.4-0.2-0.9-0.3-1.3-0.3c-0.3,0-0.6,0-0.8,0.1c-0.3,0.1-0.5,0.2-0.7,0.3
		c-0.2,0.1-0.4,0.3-0.5,0.4c0,0,0,0,0,0l-0.1-0.7h-1.6v11.9h1.9l0-3.6l0-0.4c0.1,0.1,0.3,0.2,0.4,0.3c0.2,0.1,0.4,0.2,0.7,0.3
		c0.2,0.1,0.5,0.1,0.7,0.1v0c0,0,0.1,0,0.1,0v0c0.5,0,1-0.1,1.3-0.3c0.4-0.2,0.8-0.5,1-0.9c0.3-0.4,0.5-0.8,0.7-1.4
		c0.1-0.5,0.2-1.2,0.2-1.8c0-0.7-0.1-1.3-0.2-1.8C121,12.3,120.7,11.9,120.5,11.5z M119,12.6c0.3,0.4,0.4,1.1,0.4,2.1
		c0,0.9-0.1,1.6-0.4,2.1c-0.2,0.4-0.6,0.6-1.2,0.6c-0.3,0-0.6-0.1-0.8-0.2c-0.2-0.1-0.4-0.3-0.5-0.5c-0.1-0.2-0.2-0.5-0.3-0.8
		c-0.1-0.4-0.1-0.8-0.1-1.2v-0.3c0-0.4,0-0.8,0.1-1.1c0.1-0.3,0.2-0.5,0.3-0.7c0.1-0.2,0.3-0.3,0.5-0.4c0.2-0.1,0.5-0.1,0.8-0.1v0
		C118.4,12,118.7,12.2,119,12.6z"/>
	
		<use xlink:href="#A"  width="80" height="80" x="-40" y="-40" transform="matrix(0.375 0 0 0.375 38.2786 15.0289)" style="overflow:visible;"/>
</g>
</svg>
