<?xml version="1.0" encoding="utf-8"?>
<!-- Generator: Adobe Illustrator 25.4.1, SVG Export Plug-In . SVG Version: 6.00 Build 0)  -->
<svg version="1.1" id="Capa_1" xmlns="http://www.w3.org/2000/svg" xmlns:xlink="http://www.w3.org/1999/xlink" x="0px" y="0px"
	 viewBox="0 0 150 30" style="enable-background:new 0 0 150 30;" xml:space="preserve">
<style type="text/css">
	.st0{fill:#FFFFFF;}
</style>
<g id="Capa_1-2-2">
	<path class="st0" d="M92.2,4.5h18.2v3.4h-7.2v17.6h-3.6V7.8h-7.4L92.2,4.5z"/>
	<path class="st0" d="M62.3,4.5v3.4H47.7v5.4h11.7v3.4H47.7v5.5h14.6v3.4H44.1V7.8h0V4.5H62.3z"/>
	<path class="st0" d="M71.4,4.5h-4.7l16.9,21h4.7L79.8,15l8.4-10.5l-4.7,0l-6.1,7.5L71.4,4.5z"/>
	<path class="st0" d="M76.2,19.5l-2.4-2.9l-7.2,9h4.7L76.2,19.5z"/>
	<path class="st0" d="M44.3,25.5l-16.9-21h-4.5v21h3.6V9l13.3,16.5H44.3z"/>
	<path class="st0" d="M111.2,25.4c-0.3,0-0.5-0.1-0.7-0.3c-0.2-0.2-0.3-0.4-0.3-0.7c0-0.2,0.1-0.5,0.3-0.7c0.2-0.2,0.4-0.3,0.7-0.3
		c0.2,0,0.5,0.1,0.7,0.3c0.2,0.2,0.3,0.4,0.3,0.7c0,0.2,0,0.3-0.1,0.5c-0.1,0.1-0.2,0.3-0.3,0.3C111.5,25.3,111.3,25.4,111.2,25.4z"
		/>
	<path class="st0" d="M117.3,16.5h1.6v6.2c0,0.5-0.1,1-0.4,1.5c-0.2,0.4-0.6,0.7-1,0.9c-0.5,0.2-1,0.3-1.5,0.3c-0.5,0-1-0.1-1.4-0.3
		c-0.4-0.2-0.7-0.5-1-0.8c-0.3-0.4-0.4-0.9-0.4-1.3h1.6c0,0.2,0.1,0.4,0.2,0.6c0.1,0.2,0.2,0.3,0.4,0.4c0.2,0.1,0.4,0.1,0.6,0.1
		c0.2,0,0.5,0,0.7-0.2c0.2-0.1,0.3-0.3,0.4-0.5c0.1-0.2,0.1-0.5,0.1-0.8L117.3,16.5z"/>
	<path class="st0" d="M125.5,18.9c0-0.4-0.2-0.7-0.5-0.9c-0.3-0.2-0.8-0.3-1.2-0.3c-0.3,0-0.6,0-0.9,0.1c-0.2,0.1-0.4,0.2-0.6,0.4
		c-0.1,0.2-0.2,0.4-0.2,0.6c0,0.2,0,0.3,0.1,0.5c0.1,0.1,0.2,0.3,0.3,0.3c0.2,0.1,0.3,0.2,0.5,0.2c0.2,0.1,0.4,0.1,0.5,0.2l0.8,0.2
		c0.3,0.1,0.7,0.2,1,0.3c0.3,0.1,0.6,0.3,0.8,0.5c0.2,0.2,0.4,0.4,0.6,0.7c0.2,0.3,0.2,0.6,0.2,1c0,0.5-0.1,1-0.4,1.4
		c-0.3,0.4-0.7,0.7-1.2,0.9c-0.6,0.2-1.2,0.3-1.8,0.3c-0.6,0-1.2-0.1-1.8-0.3c-1-0.4-1.7-1.3-1.7-2.4h1.6c0,0.3,0.1,0.5,0.3,0.8
		c0.2,0.2,0.4,0.4,0.7,0.5c0.3,0.1,0.6,0.2,0.9,0.1c0.3,0,0.6,0,0.9-0.2c0.2-0.1,0.5-0.2,0.6-0.4c0.2-0.2,0.2-0.4,0.2-0.7
		c0-0.2-0.1-0.4-0.2-0.6c-0.2-0.2-0.3-0.3-0.6-0.4c-0.3-0.1-0.6-0.2-0.8-0.3l-1-0.3c-0.6-0.1-1.2-0.4-1.7-0.8
		c-0.4-0.4-0.7-0.9-0.6-1.5c0-0.5,0.1-1,0.4-1.4c0.3-0.4,0.7-0.7,1.2-0.9c0.5-0.2,1.1-0.3,1.7-0.3c0.6,0,1.1,0.1,1.7,0.3
		c0.4,0.2,0.8,0.5,1.1,0.9c0.3,0.4,0.4,0.8,0.4,1.3L125.5,18.9z"/>
</g>
</svg>
